<?xml version="1.0" standalone="no"?>
<!DOCTYPE svg PUBLIC "-//W3C//DTD SVG 1.1//EN" "http://www.w3.org/Graphics/SVG/1.1/DTD/svg11.dtd">
<svg t="1637659904023" class="icon" viewBox="0 0 1024 1024" version="1.1" xmlns="http://www.w3.org/2000/svg" p-id="14264" xmlns:xlink="http://www.w3.org/1999/xlink" width="32" height="32">
    <defs><style type="text/css"></style></defs>
    <path d="M1024 512q0 14.848-10.848 25.728l-146.272 146.272q-10.848 10.848-25.728 10.848t-25.728-10.848-10.848-25.728l0-73.152-585.152 0 0 73.152q0 14.848-10.848 25.728t-25.728 10.848-25.728-10.848l-146.272-146.272q-10.848-10.848-10.848-25.728t10.848-25.728l146.272-146.272q10.848-10.848 25.728-10.848t25.728 10.848 10.848 25.728l0 73.152 585.152 0 0-73.152q0-14.848 10.848-25.728t25.728-10.848 25.728 10.848l146.272 146.272q10.848 10.848 10.848 25.728z" p-id="14265"></path>
</svg>